<svg width="121" height="33" viewBox="0 0 121 33" fill="none" xmlns="http://www.w3.org/2000/svg">
<path d="M22 13.2889C22 19.6114 17.3568 24.4222 12 24.4222C6.64321 24.4222 2 19.6114 2 13.2889C2 6.9664 6.64321 2.15555 12 2.15555C17.3568 2.15555 22 6.9664 22 13.2889Z" stroke="#0075FF" stroke-width="4"/>
<path d="M30 24.2333C30 28.138 27.1477 30.9889 24 30.9889C20.8523 30.9889 18 28.138 18 24.2333C18 20.3286 20.8523 17.4778 24 17.4778C27.1477 17.4778 30 20.3286 30 24.2333Z" stroke="#1BE3A7" stroke-width="4"/>
<path d="M51.5117 16.7221H54.4316C54.373 17.6791 54.1094 18.5287 53.6406 19.2709C53.1784 20.0131 52.5306 20.5925 51.6973 21.0092C50.8704 21.4259 49.8743 21.6342 48.709 21.6342C47.7975 21.6342 46.9805 21.478 46.2578 21.1655C45.5352 20.8464 44.9167 20.3907 44.4023 19.7983C43.8945 19.2058 43.5072 18.4897 43.2402 17.6498C42.9733 16.81 42.8398 15.8692 42.8398 14.8276V13.8412C42.8398 12.7996 42.9766 11.8588 43.25 11.019C43.5299 10.1726 43.9271 9.45321 44.4414 8.86076C44.9622 8.26832 45.584 7.81259 46.3066 7.49358C47.0293 7.17457 47.8366 7.01506 48.7285 7.01506C49.9134 7.01506 50.9128 7.2299 51.7266 7.65959C52.5469 8.08928 53.1816 8.68173 53.6309 9.43694C54.0866 10.1921 54.36 11.0515 54.4512 12.0151H51.5215C51.4889 11.4421 51.375 10.9571 51.1797 10.56C50.9844 10.1563 50.6882 9.8536 50.291 9.65178C49.9004 9.44345 49.3796 9.33928 48.7285 9.33928C48.2402 9.33928 47.8138 9.43043 47.4492 9.61272C47.0846 9.79501 46.7786 10.0717 46.5312 10.4428C46.2839 10.8139 46.0983 11.2826 45.9746 11.849C45.8574 12.4089 45.7988 13.0665 45.7988 13.8217V14.8276C45.7988 15.5632 45.8542 16.211 45.9648 16.7709C46.0755 17.3243 46.2448 17.7931 46.4727 18.1772C46.707 18.5548 47.0065 18.8412 47.3711 19.0365C47.7422 19.2253 48.1882 19.3197 48.709 19.3197C49.321 19.3197 49.8255 19.2221 50.2227 19.0268C50.6198 18.8315 50.9225 18.5418 51.1309 18.1576C51.3457 17.7735 51.4727 17.295 51.5117 16.7221ZM58.9238 6.43889V21.4389H56.1113V6.43889H58.9238ZM58.5234 15.7846H57.752C57.7585 15.0489 57.8561 14.3718 58.0449 13.7533C58.2337 13.1283 58.5039 12.588 58.8555 12.1322C59.207 11.67 59.627 11.3119 60.1152 11.058C60.61 10.8041 61.1569 10.6772 61.7559 10.6772C62.2767 10.6772 62.7487 10.752 63.1719 10.9018C63.6016 11.045 63.9694 11.2794 64.2754 11.6049C64.5879 11.9239 64.8288 12.3438 64.998 12.8647C65.1673 13.3855 65.252 14.017 65.252 14.7592V21.4389H62.4199V14.7397C62.4199 14.2709 62.3516 13.9031 62.2148 13.6362C62.0846 13.3627 61.8926 13.1707 61.6387 13.06C61.3913 12.9428 61.0853 12.8842 60.7207 12.8842C60.3171 12.8842 59.972 12.9591 59.6855 13.1088C59.4056 13.2586 59.181 13.4669 59.0117 13.7338C58.8424 13.9942 58.7188 14.3002 58.6406 14.6518C58.5625 15.0033 58.5234 15.3809 58.5234 15.7846ZM70.3594 10.8725V21.4389H67.5371V10.8725H70.3594ZM67.3613 8.11858C67.3613 7.70842 67.5046 7.36988 67.791 7.10295C68.0775 6.83602 68.4616 6.70256 68.9434 6.70256C69.4186 6.70256 69.7995 6.83602 70.0859 7.10295C70.3789 7.36988 70.5254 7.70842 70.5254 8.11858C70.5254 8.52873 70.3789 8.86727 70.0859 9.1342C69.7995 9.40113 69.4186 9.53459 68.9434 9.53459C68.4616 9.53459 68.0775 9.40113 67.791 9.1342C67.5046 8.86727 67.3613 8.52873 67.3613 8.11858ZM75.4961 13.1772V21.4389H72.6836V10.8725H75.3301L75.4961 13.1772ZM78.6797 10.8041L78.6309 13.4115C78.4941 13.392 78.3281 13.3757 78.1328 13.3627C77.944 13.3432 77.7715 13.3334 77.6152 13.3334C77.2181 13.3334 76.873 13.3855 76.5801 13.4897C76.2936 13.5873 76.0527 13.7338 75.8574 13.9291C75.6686 14.1244 75.5254 14.3621 75.4277 14.642C75.3366 14.922 75.2845 15.241 75.2715 15.599L74.7051 15.4233C74.7051 14.7397 74.7734 14.1114 74.9102 13.5385C75.0469 12.9591 75.2454 12.4545 75.5059 12.0248C75.7728 11.5951 76.0983 11.2631 76.4824 11.0287C76.8665 10.7944 77.306 10.6772 77.8008 10.6772C77.957 10.6772 78.1165 10.6902 78.2793 10.7162C78.4421 10.7358 78.5755 10.7651 78.6797 10.8041ZM83.1133 7.22014V21.4389H80.1836V7.22014H83.1133ZM91.6289 7.22014L85.9941 14.2416L82.7422 17.7377L82.2148 14.9643L84.4121 11.9565L88.0352 7.22014H91.6289ZM88.2988 21.4389L84.1094 14.8666L86.2773 13.0502L91.7656 21.4389H88.2988ZM98.7383 18.9096V10.8725H101.551V21.4389H98.9043L98.7383 18.9096ZM99.0508 16.7416L99.8809 16.7221C99.8809 17.4252 99.7995 18.0795 99.6367 18.685C99.474 19.2839 99.2298 19.8048 98.9043 20.2475C98.5788 20.6837 98.1686 21.0255 97.6738 21.2729C97.179 21.5138 96.5964 21.6342 95.9258 21.6342C95.4115 21.6342 94.9362 21.5626 94.5 21.4194C94.0703 21.2696 93.6992 21.0385 93.3867 20.726C93.0807 20.407 92.8398 20.0001 92.6641 19.5053C92.4948 19.004 92.4102 18.4018 92.4102 17.6987V10.8725H95.2227V17.7182C95.2227 18.0307 95.2585 18.2944 95.3301 18.5092C95.4082 18.724 95.5156 18.8998 95.6523 19.0365C95.7891 19.1733 95.9486 19.2709 96.1309 19.3295C96.3197 19.3881 96.528 19.4174 96.7559 19.4174C97.3353 19.4174 97.791 19.3002 98.123 19.0658C98.4616 18.8315 98.6992 18.5125 98.8359 18.1088C98.9792 17.6987 99.0508 17.2429 99.0508 16.7416ZM109.949 18.9096V10.8725H112.762V21.4389H110.115L109.949 18.9096ZM110.262 16.7416L111.092 16.7221C111.092 17.4252 111.01 18.0795 110.848 18.685C110.685 19.2839 110.441 19.8048 110.115 20.2475C109.79 20.6837 109.38 21.0255 108.885 21.2729C108.39 21.5138 107.807 21.6342 107.137 21.6342C106.622 21.6342 106.147 21.5626 105.711 21.4194C105.281 21.2696 104.91 21.0385 104.598 20.726C104.292 20.407 104.051 20.0001 103.875 19.5053C103.706 19.004 103.621 18.4018 103.621 17.6987V10.8725H106.434V17.7182C106.434 18.0307 106.469 18.2944 106.541 18.5092C106.619 18.724 106.727 18.8998 106.863 19.0365C107 19.1733 107.16 19.2709 107.342 19.3295C107.531 19.3881 107.739 19.4174 107.967 19.4174C108.546 19.4174 109.002 19.3002 109.334 19.0658C109.673 18.8315 109.91 18.5125 110.047 18.1088C110.19 17.6987 110.262 17.2429 110.262 16.7416ZM120.086 10.8725V12.8647H113.934V10.8725H120.086ZM115.457 8.26506H118.27V18.2553C118.27 18.5613 118.309 18.7957 118.387 18.9584C118.471 19.1212 118.595 19.2351 118.758 19.3002C118.921 19.3588 119.126 19.3881 119.373 19.3881C119.549 19.3881 119.705 19.3816 119.842 19.3686C119.985 19.349 120.105 19.3295 120.203 19.31L120.213 21.3803C119.972 21.4584 119.712 21.5203 119.432 21.5658C119.152 21.6114 118.842 21.6342 118.504 21.6342C117.885 21.6342 117.345 21.5333 116.883 21.3315C116.427 21.1231 116.076 20.7911 115.828 20.3354C115.581 19.8796 115.457 19.2807 115.457 18.5385V8.26506Z" fill="black"/>
</svg>
